solid sliding_box_body_corrected
  facet normal 0.000000e+00 0.000000e+00 1.000000e+00
    outer loop
      vertex 0.000000e+00 0.000000e+00 0.000000e+00
      vertex 6.500000e+01 0.000000e+00 0.000000e+00
      vertex 6.500000e+01 6.500000e+01 0.000000e+00
    endloop
  endfacet
  facet normal 0.000000e+00 0.000000e+00 1.000000e+00
    outer loop
      vertex 0.000000e+00 0.000000e+00 0.000000e+00
      vertex 6.500000e+01 6.500000e+01 0.000000e+00
      vertex 0.000000e+00 6.500000e+01 0.000000e+00
    endloop
  endfacet
  facet normal 0.000000e+00 0.000000e+00 -1.000000e+00
    outer loop
      vertex 0.000000e+00 0.000000e+00 2.000000e+00
      vertex 0.000000e+00 6.500000e+01 2.000000e+00
      vertex 6.500000e+01 6.500000e+01 2.000000e+00
    endloop
  endfacet
  facet normal 0.000000e+00 0.000000e+00 -1.000000e+00
    outer loop
      vertex 0.000000e+00 0.000000e+00 2.000000e+00
      vertex 6.500000e+01 6.500000e+01 2.000000e+00
      vertex 6.500000e+01 0.000000e+00 2.000000e+00
    endloop
  endfacet
  facet normal 1.000000e+00 0.000000e+00 0.000000e+00
    outer loop
      vertex 0.000000e+00 0.000000e+00 0.000000e+00
      vertex 0.000000e+00 6.500000e+01 0.000000e+00
      vertex 0.000000e+00 6.500000e+01 2.000000e+00
    endloop
  endfacet
  facet normal 1.000000e+00 0.000000e+00 0.000000e+00
    outer loop
      vertex 0.000000e+00 0.000000e+00 0.000000e+00
      vertex 0.000000e+00 6.500000e+01 2.000000e+00
      vertex 0.000000e+00 0.000000e+00 2.000000e+00
    endloop
  endfacet
  facet normal -1.000000e+00 0.000000e+00 0.000000e+00
    outer loop
      vertex 6.500000e+01 0.000000e+00 0.000000e+00
      vertex 6.500000e+01 0.000000e+00 2.000000e+00
      vertex 6.500000e+01 6.500000e+01 2.000000e+00
    endloop
  endfacet
  facet normal -1.000000e+00 0.000000e+00 0.000000e+00
    outer loop
      vertex 6.500000e+01 0.000000e+00 0.000000e+00
      vertex 6.500000e+01 6.500000e+01 2.000000e+00
      vertex 6.500000e+01 6.500000e+01 0.000000e+00
    endloop
  endfacet
  facet normal 0.000000e+00 1.000000e+00 0.000000e+00
    outer loop
      vertex 0.000000e+00 0.000000e+00 0.000000e+00
      vertex 0.000000e+00 0.000000e+00 2.000000e+00
      vertex 6.500000e+01 0.000000e+00 2.000000e+00
    endloop
  endfacet
  facet normal 0.000000e+00 1.000000e+00 0.000000e+00
    outer loop
      vertex 0.000000e+00 0.000000e+00 0.000000e+00
      vertex 6.500000e+01 0.000000e+00 2.000000e+00
      vertex 6.500000e+01 0.000000e+00 0.000000e+00
    endloop
  endfacet
  facet normal 0.000000e+00 -1.000000e+00 0.000000e+00
    outer loop
      vertex 0.000000e+00 6.500000e+01 0.000000e+00
      vertex 6.500000e+01 6.500000e+01 0.000000e+00
      vertex 6.500000e+01 6.500000e+01 2.000000e+00
    endloop
  endfacet
  facet normal 0.000000e+00 -1.000000e+00 0.000000e+00
    outer loop
      vertex 0.000000e+00 6.500000e+01 0.000000e+00
      vertex 6.500000e+01 6.500000e+01 2.000000e+00
      vertex 0.000000e+00 6.500000e+01 2.000000e+00
    endloop
  endfacet
  facet normal 0.000000e+00 0.000000e+00 1.000000e+00
    outer loop
      vertex 0.000000e+00 0.000000e+00 2.000000e+00
      vertex 2.000000e+00 0.000000e+00 2.000000e+00
      vertex 2.000000e+00 6.500000e+01 2.000000e+00
    endloop
  endfacet
  facet normal 0.000000e+00 0.000000e+00 1.000000e+00
    outer loop
      vertex 0.000000e+00 0.000000e+00 2.000000e+00
      vertex 2.000000e+00 6.500000e+01 2.000000e+00
      vertex 0.000000e+00 6.500000e+01 2.000000e+00
    endloop
  endfacet
  facet normal 0.000000e+00 0.000000e+00 -1.000000e+00
    outer loop
      vertex 0.000000e+00 0.000000e+00 2.500000e+01
      vertex 0.000000e+00 6.500000e+01 2.500000e+01
      vertex 2.000000e+00 6.500000e+01 2.500000e+01
    endloop
  endfacet
  facet normal 0.000000e+00 0.000000e+00 -1.000000e+00
    outer loop
      vertex 0.000000e+00 0.000000e+00 2.500000e+01
      vertex 2.000000e+00 6.500000e+01 2.500000e+01
      vertex 2.000000e+00 0.000000e+00 2.500000e+01
    endloop
  endfacet
  facet normal 1.000000e+00 0.000000e+00 0.000000e+00
    outer loop
      vertex 0.000000e+00 0.000000e+00 2.000000e+00
      vertex 0.000000e+00 6.500000e+01 2.000000e+00
      vertex 0.000000e+00 6.500000e+01 2.500000e+01
    endloop
  endfacet
  facet normal 1.000000e+00 0.000000e+00 0.000000e+00
    outer loop
      vertex 0.000000e+00 0.000000e+00 2.000000e+00
      vertex 0.000000e+00 6.500000e+01 2.500000e+01
      vertex 0.000000e+00 0.000000e+00 2.500000e+01
    endloop
  endfacet
  facet normal -1.000000e+00 0.000000e+00 0.000000e+00
    outer loop
      vertex 2.000000e+00 0.000000e+00 2.000000e+00
      vertex 2.000000e+00 0.000000e+00 2.500000e+01
      vertex 2.000000e+00 6.500000e+01 2.500000e+01
    endloop
  endfacet
  facet normal -1.000000e+00 0.000000e+00 0.000000e+00
    outer loop
      vertex 2.000000e+00 0.000000e+00 2.000000e+00
      vertex 2.000000e+00 6.500000e+01 2.500000e+01
      vertex 2.000000e+00 6.500000e+01 2.000000e+00
    endloop
  endfacet
  facet normal 0.000000e+00 1.000000e+00 0.000000e+00
    outer loop
      vertex 0.000000e+00 0.000000e+00 2.000000e+00
      vertex 0.000000e+00 0.000000e+00 2.500000e+01
      vertex 2.000000e+00 0.000000e+00 2.500000e+01
    endloop
  endfacet
  facet normal 0.000000e+00 1.000000e+00 0.000000e+00
    outer loop
      vertex 0.000000e+00 0.000000e+00 2.000000e+00
      vertex 2.000000e+00 0.000000e+00 2.500000e+01
      vertex 2.000000e+00 0.000000e+00 2.000000e+00
    endloop
  endfacet
  facet normal 0.000000e+00 -1.000000e+00 0.000000e+00
    outer loop
      vertex 0.000000e+00 6.500000e+01 2.000000e+00
      vertex 2.000000e+00 6.500000e+01 2.000000e+00
      vertex 2.000000e+00 6.500000e+01 2.500000e+01
    endloop
  endfacet
  facet normal 0.000000e+00 -1.000000e+00 0.000000e+00
    outer loop
      vertex 0.000000e+00 6.500000e+01 2.000000e+00
      vertex 2.000000e+00 6.500000e+01 2.500000e+01
      vertex 0.000000e+00 6.500000e+01 2.500000e+01
    endloop
  endfacet
  facet normal 0.000000e+00 0.000000e+00 1.000000e+00
    outer loop
      vertex 6.300000e+01 0.000000e+00 2.000000e+00
      vertex 6.500000e+01 0.000000e+00 2.000000e+00
      vertex 6.500000e+01 6.500000e+01 2.000000e+00
    endloop
  endfacet
  facet normal 0.000000e+00 0.000000e+00 1.000000e+00
    outer loop
      vertex 6.300000e+01 0.000000e+00 2.000000e+00
      vertex 6.500000e+01 6.500000e+01 2.000000e+00
      vertex 6.300000e+01 6.500000e+01 2.000000e+00
    endloop
  endfacet
  facet normal 0.000000e+00 0.000000e+00 -1.000000e+00
    outer loop
      vertex 6.300000e+01 0.000000e+00 2.500000e+01
      vertex 6.300000e+01 6.500000e+01 2.500000e+01
      vertex 6.500000e+01 6.500000e+01 2.500000e+01
    endloop
  endfacet
  facet normal 0.000000e+00 0.000000e+00 -1.000000e+00
    outer loop
      vertex 6.300000e+01 0.000000e+00 2.500000e+01
      vertex 6.500000e+01 6.500000e+01 2.500000e+01
      vertex 6.500000e+01 0.000000e+00 2.500000e+01
    endloop
  endfacet
  facet normal 1.000000e+00 0.000000e+00 0.000000e+00
    outer loop
      vertex 6.300000e+01 0.000000e+00 2.000000e+00
      vertex 6.300000e+01 6.500000e+01 2.000000e+00
      vertex 6.300000e+01 6.500000e+01 2.500000e+01
    endloop
  endfacet
  facet normal 1.000000e+00 0.000000e+00 0.000000e+00
    outer loop
      vertex 6.300000e+01 0.000000e+00 2.000000e+00
      vertex 6.300000e+01 6.500000e+01 2.500000e+01
      vertex 6.300000e+01 0.000000e+00 2.500000e+01
    endloop
  endfacet
  facet normal -1.000000e+00 0.000000e+00 0.000000e+00
    outer loop
      vertex 6.500000e+01 0.000000e+00 2.000000e+00
      vertex 6.500000e+01 0.000000e+00 2.500000e+01
      vertex 6.500000e+01 6.500000e+01 2.500000e+01
    endloop
  endfacet
  facet normal -1.000000e+00 0.000000e+00 0.000000e+00
    outer loop
      vertex 6.500000e+01 0.000000e+00 2.000000e+00
      vertex 6.500000e+01 6.500000e+01 2.500000e+01
      vertex 6.500000e+01 6.500000e+01 2.000000e+00
    endloop
  endfacet
  facet normal 0.000000e+00 1.000000e+00 0.000000e+00
    outer loop
      vertex 6.300000e+01 0.000000e+00 2.000000e+00
      vertex 6.300000e+01 0.000000e+00 2.500000e+01
      vertex 6.500000e+01 0.000000e+00 2.500000e+01
    endloop
  endfacet
  facet normal 0.000000e+00 1.000000e+00 0.000000e+00
    outer loop
      vertex 6.300000e+01 0.000000e+00 2.000000e+00
      vertex 6.500000e+01 0.000000e+00 2.500000e+01
      vertex 6.500000e+01 0.000000e+00 2.000000e+00
    endloop
  endfacet
  facet normal 0.000000e+00 -1.000000e+00 0.000000e+00
    outer loop
      vertex 6.300000e+01 6.500000e+01 2.000000e+00
      vertex 6.500000e+01 6.500000e+01 2.000000e+00
      vertex 6.500000e+01 6.500000e+01 2.500000e+01
    endloop
  endfacet
  facet normal 0.000000e+00 -1.000000e+00 0.000000e+00
    outer loop
      vertex 6.300000e+01 6.500000e+01 2.000000e+00
      vertex 6.500000e+01 6.500000e+01 2.500000e+01
      vertex 6.300000e+01 6.500000e+01 2.500000e+01
    endloop
  endfacet
  facet normal 0.000000e+00 0.000000e+00 1.000000e+00
    outer loop
      vertex 2.000000e+00 6.300000e+01 2.000000e+00
      vertex 6.300000e+01 6.300000e+01 2.000000e+00
      vertex 6.300000e+01 6.500000e+01 2.000000e+00
    endloop
  endfacet
  facet normal 0.000000e+00 0.000000e+00 1.000000e+00
    outer loop
      vertex 2.000000e+00 6.300000e+01 2.000000e+00
      vertex 6.300000e+01 6.500000e+01 2.000000e+00
      vertex 2.000000e+00 6.500000e+01 2.000000e+00
    endloop
  endfacet
  facet normal 0.000000e+00 0.000000e+00 -1.000000e+00
    outer loop
      vertex 2.000000e+00 6.300000e+01 2.240000e+01
      vertex 2.000000e+00 6.500000e+01 2.240000e+01
      vertex 6.300000e+01 6.500000e+01 2.240000e+01
    endloop
  endfacet
  facet normal 0.000000e+00 0.000000e+00 -1.000000e+00
    outer loop
      vertex 2.000000e+00 6.300000e+01 2.240000e+01
      vertex 6.300000e+01 6.500000e+01 2.240000e+01
      vertex 6.300000e+01 6.300000e+01 2.240000e+01
    endloop
  endfacet
  facet normal 1.000000e+00 0.000000e+00 0.000000e+00
    outer loop
      vertex 2.000000e+00 6.300000e+01 2.000000e+00
      vertex 2.000000e+00 6.500000e+01 2.000000e+00
      vertex 2.000000e+00 6.500000e+01 2.240000e+01
    endloop
  endfacet
  facet normal 1.000000e+00 0.000000e+00 0.000000e+00
    outer loop
      vertex 2.000000e+00 6.300000e+01 2.000000e+00
      vertex 2.000000e+00 6.500000e+01 2.240000e+01
      vertex 2.000000e+00 6.300000e+01 2.240000e+01
    endloop
  endfacet
  facet normal -1.000000e+00 0.000000e+00 0.000000e+00
    outer loop
      vertex 6.300000e+01 6.300000e+01 2.000000e+00
      vertex 6.300000e+01 6.300000e+01 2.240000e+01
      vertex 6.300000e+01 6.500000e+01 2.240000e+01
    endloop
  endfacet
  facet normal -1.000000e+00 0.000000e+00 0.000000e+00
    outer loop
      vertex 6.300000e+01 6.300000e+01 2.000000e+00
      vertex 6.300000e+01 6.500000e+01 2.240000e+01
      vertex 6.300000e+01 6.500000e+01 2.000000e+00
    endloop
  endfacet
  facet normal 0.000000e+00 1.000000e+00 0.000000e+00
    outer loop
      vertex 2.000000e+00 6.300000e+01 2.000000e+00
      vertex 2.000000e+00 6.300000e+01 2.240000e+01
      vertex 6.300000e+01 6.300000e+01 2.240000e+01
    endloop
  endfacet
  facet normal 0.000000e+00 1.000000e+00 0.000000e+00
    outer loop
      vertex 2.000000e+00 6.300000e+01 2.000000e+00
      vertex 6.300000e+01 6.300000e+01 2.240000e+01
      vertex 6.300000e+01 6.300000e+01 2.000000e+00
    endloop
  endfacet
  facet normal 0.000000e+00 -1.000000e+00 0.000000e+00
    outer loop
      vertex 2.000000e+00 6.500000e+01 2.000000e+00
      vertex 6.300000e+01 6.500000e+01 2.000000e+00
      vertex 6.300000e+01 6.500000e+01 2.240000e+01
    endloop
  endfacet
  facet normal 0.000000e+00 -1.000000e+00 0.000000e+00
    outer loop
      vertex 2.000000e+00 6.500000e+01 2.000000e+00
      vertex 6.300000e+01 6.500000e+01 2.240000e+01
      vertex 2.000000e+00 6.500000e+01 2.240000e+01
    endloop
  endfacet
  facet normal 0.000000e+00 0.000000e+00 1.000000e+00
    outer loop
      vertex 2.000000e+00 0.000000e+00 2.000000e+00
      vertex 2.000000e+01 0.000000e+00 2.000000e+00
      vertex 2.000000e+01 2.000000e+00 2.000000e+00
    endloop
  endfacet
  facet normal 0.000000e+00 0.000000e+00 1.000000e+00
    outer loop
      vertex 2.000000e+00 0.000000e+00 2.000000e+00
      vertex 2.000000e+01 2.000000e+00 2.000000e+00
      vertex 2.000000e+00 2.000000e+00 2.000000e+00
    endloop
  endfacet
  facet normal 0.000000e+00 0.000000e+00 -1.000000e+00
    outer loop
      vertex 2.000000e+00 0.000000e+00 2.500000e+01
      vertex 2.000000e+00 2.000000e+00 2.500000e+01
      vertex 2.000000e+01 2.000000e+00 2.500000e+01
    endloop
  endfacet
  facet normal 0.000000e+00 0.000000e+00 -1.000000e+00
    outer loop
      vertex 2.000000e+00 0.000000e+00 2.500000e+01
      vertex 2.000000e+01 2.000000e+00 2.500000e+01
      vertex 2.000000e+01 0.000000e+00 2.500000e+01
    endloop
  endfacet
  facet normal 1.000000e+00 0.000000e+00 0.000000e+00
    outer loop
      vertex 2.000000e+00 0.000000e+00 2.000000e+00
      vertex 2.000000e+00 2.000000e+00 2.000000e+00
      vertex 2.000000e+00 2.000000e+00 2.500000e+01
    endloop
  endfacet
  facet normal 1.000000e+00 0.000000e+00 0.000000e+00
    outer loop
      vertex 2.000000e+00 0.000000e+00 2.000000e+00
      vertex 2.000000e+00 2.000000e+00 2.500000e+01
      vertex 2.000000e+00 0.000000e+00 2.500000e+01
    endloop
  endfacet
  facet normal -1.000000e+00 0.000000e+00 0.000000e+00
    outer loop
      vertex 2.000000e+01 0.000000e+00 2.000000e+00
      vertex 2.000000e+01 0.000000e+00 2.500000e+01
      vertex 2.000000e+01 2.000000e+00 2.500000e+01
    endloop
  endfacet
  facet normal -1.000000e+00 0.000000e+00 0.000000e+00
    outer loop
      vertex 2.000000e+01 0.000000e+00 2.000000e+00
      vertex 2.000000e+01 2.000000e+00 2.500000e+01
      vertex 2.000000e+01 2.000000e+00 2.000000e+00
    endloop
  endfacet
  facet normal 0.000000e+00 1.000000e+00 0.000000e+00
    outer loop
      vertex 2.000000e+00 0.000000e+00 2.000000e+00
      vertex 2.000000e+00 0.000000e+00 2.500000e+01
      vertex 2.000000e+01 0.000000e+00 2.500000e+01
    endloop
  endfacet
  facet normal 0.000000e+00 1.000000e+00 0.000000e+00
    outer loop
      vertex 2.000000e+00 0.000000e+00 2.000000e+00
      vertex 2.000000e+01 0.000000e+00 2.500000e+01
      vertex 2.000000e+01 0.000000e+00 2.000000e+00
    endloop
  endfacet
  facet normal 0.000000e+00 -1.000000e+00 0.000000e+00
    outer loop
      vertex 2.000000e+00 2.000000e+00 2.000000e+00
      vertex 2.000000e+01 2.000000e+00 2.000000e+00
      vertex 2.000000e+01 2.000000e+00 2.500000e+01
    endloop
  endfacet
  facet normal 0.000000e+00 -1.000000e+00 0.000000e+00
    outer loop
      vertex 2.000000e+00 2.000000e+00 2.000000e+00
      vertex 2.000000e+01 2.000000e+00 2.500000e+01
      vertex 2.000000e+00 2.000000e+00 2.500000e+01
    endloop
  endfacet
  facet normal 0.000000e+00 0.000000e+00 1.000000e+00
    outer loop
      vertex 4.000000e+01 0.000000e+00 2.000000e+00
      vertex 6.300000e+01 0.000000e+00 2.000000e+00
      vertex 6.300000e+01 2.000000e+00 2.000000e+00
    endloop
  endfacet
  facet normal 0.000000e+00 0.000000e+00 1.000000e+00
    outer loop
      vertex 4.000000e+01 0.000000e+00 2.000000e+00
      vertex 6.300000e+01 2.000000e+00 2.000000e+00
      vertex 4.000000e+01 2.000000e+00 2.000000e+00
    endloop
  endfacet
  facet normal 0.000000e+00 0.000000e+00 -1.000000e+00
    outer loop
      vertex 4.000000e+01 0.000000e+00 2.500000e+01
      vertex 4.000000e+01 2.000000e+00 2.500000e+01
      vertex 6.300000e+01 2.000000e+00 2.500000e+01
    endloop
  endfacet
  facet normal 0.000000e+00 0.000000e+00 -1.000000e+00
    outer loop
      vertex 4.000000e+01 0.000000e+00 2.500000e+01
      vertex 6.300000e+01 2.000000e+00 2.500000e+01
      vertex 6.300000e+01 0.000000e+00 2.500000e+01
    endloop
  endfacet
  facet normal 1.000000e+00 0.000000e+00 0.000000e+00
    outer loop
      vertex 4.000000e+01 0.000000e+00 2.000000e+00
      vertex 4.000000e+01 2.000000e+00 2.000000e+00
      vertex 4.000000e+01 2.000000e+00 2.500000e+01
    endloop
  endfacet
  facet normal 1.000000e+00 0.000000e+00 0.000000e+00
    outer loop
      vertex 4.000000e+01 0.000000e+00 2.000000e+00
      vertex 4.000000e+01 2.000000e+00 2.500000e+01
      vertex 4.000000e+01 0.000000e+00 2.500000e+01
    endloop
  endfacet
  facet normal -1.000000e+00 0.000000e+00 0.000000e+00
    outer loop
      vertex 6.300000e+01 0.000000e+00 2.000000e+00
      vertex 6.300000e+01 0.000000e+00 2.500000e+01
      vertex 6.300000e+01 2.000000e+00 2.500000e+01
    endloop
  endfacet
  facet normal -1.000000e+00 0.000000e+00 0.000000e+00
    outer loop
      vertex 6.300000e+01 0.000000e+00 2.000000e+00
      vertex 6.300000e+01 2.000000e+00 2.500000e+01
      vertex 6.300000e+01 2.000000e+00 2.000000e+00
    endloop
  endfacet
  facet normal 0.000000e+00 1.000000e+00 0.000000e+00
    outer loop
      vertex 4.000000e+01 0.000000e+00 2.000000e+00
      vertex 4.000000e+01 0.000000e+00 2.500000e+01
      vertex 6.300000e+01 0.000000e+00 2.500000e+01
    endloop
  endfacet
  facet normal 0.000000e+00 1.000000e+00 0.000000e+00
    outer loop
      vertex 4.000000e+01 0.000000e+00 2.000000e+00
      vertex 6.300000e+01 0.000000e+00 2.500000e+01
      vertex 6.300000e+01 0.000000e+00 2.000000e+00
    endloop
  endfacet
  facet normal 0.000000e+00 -1.000000e+00 0.000000e+00
    outer loop
      vertex 4.000000e+01 2.000000e+00 2.000000e+00
      vertex 6.300000e+01 2.000000e+00 2.000000e+00
      vertex 6.300000e+01 2.000000e+00 2.500000e+01
    endloop
  endfacet
  facet normal 0.000000e+00 -1.000000e+00 0.000000e+00
    outer loop
      vertex 4.000000e+01 2.000000e+00 2.000000e+00
      vertex 6.300000e+01 2.000000e+00 2.500000e+01
      vertex 4.000000e+01 2.000000e+00 2.500000e+01
    endloop
  endfacet
  facet normal 0.000000e+00 0.000000e+00 1.000000e+00
    outer loop
      vertex 2.000000e+01 0.000000e+00 2.000000e+01
      vertex 4.000000e+01 0.000000e+00 2.000000e+01
      vertex 4.000000e+01 2.000000e+00 2.000000e+01
    endloop
  endfacet
  facet normal 0.000000e+00 0.000000e+00 1.000000e+00
    outer loop
      vertex 2.000000e+01 0.000000e+00 2.000000e+01
      vertex 4.000000e+01 2.000000e+00 2.000000e+01
      vertex 2.000000e+01 2.000000e+00 2.000000e+01
    endloop
  endfacet
  facet normal 0.000000e+00 0.000000e+00 -1.000000e+00
    outer loop
      vertex 2.000000e+01 0.000000e+00 2.500000e+01
      vertex 2.000000e+01 2.000000e+00 2.500000e+01
      vertex 4.000000e+01 2.000000e+00 2.500000e+01
    endloop
  endfacet
  facet normal 0.000000e+00 0.000000e+00 -1.000000e+00
    outer loop
      vertex 2.000000e+01 0.000000e+00 2.500000e+01
      vertex 4.000000e+01 2.000000e+00 2.500000e+01
      vertex 4.000000e+01 0.000000e+00 2.500000e+01
    endloop
  endfacet
  facet normal 1.000000e+00 0.000000e+00 0.000000e+00
    outer loop
      vertex 2.000000e+01 0.000000e+00 2.000000e+01
      vertex 2.000000e+01 2.000000e+00 2.000000e+01
      vertex 2.000000e+01 2.000000e+00 2.500000e+01
    endloop
  endfacet
  facet normal 1.000000e+00 0.000000e+00 0.000000e+00
    outer loop
      vertex 2.000000e+01 0.000000e+00 2.000000e+01
      vertex 2.000000e+01 2.000000e+00 2.500000e+01
      vertex 2.000000e+01 0.000000e+00 2.500000e+01
    endloop
  endfacet
  facet normal -1.000000e+00 0.000000e+00 0.000000e+00
    outer loop
      vertex 4.000000e+01 0.000000e+00 2.000000e+01
      vertex 4.000000e+01 0.000000e+00 2.500000e+01
      vertex 4.000000e+01 2.000000e+00 2.500000e+01
    endloop
  endfacet
  facet normal -1.000000e+00 0.000000e+00 0.000000e+00
    outer loop
      vertex 4.000000e+01 0.000000e+00 2.000000e+01
      vertex 4.000000e+01 2.000000e+00 2.500000e+01
      vertex 4.000000e+01 2.000000e+00 2.000000e+01
    endloop
  endfacet
  facet normal 0.000000e+00 1.000000e+00 0.000000e+00
    outer loop
      vertex 2.000000e+01 0.000000e+00 2.000000e+01
      vertex 2.000000e+01 0.000000e+00 2.500000e+01
      vertex 4.000000e+01 0.000000e+00 2.500000e+01
    endloop
  endfacet
  facet normal 0.000000e+00 1.000000e+00 0.000000e+00
    outer loop
      vertex 2.000000e+01 0.000000e+00 2.000000e+01
      vertex 4.000000e+01 0.000000e+00 2.500000e+01
      vertex 4.000000e+01 0.000000e+00 2.000000e+01
    endloop
  endfacet
  facet normal 0.000000e+00 -1.000000e+00 0.000000e+00
    outer loop
      vertex 2.000000e+01 2.000000e+00 2.000000e+01
      vertex 4.000000e+01 2.000000e+00 2.000000e+01
      vertex 4.000000e+01 2.000000e+00 2.500000e+01
    endloop
  endfacet
  facet normal 0.000000e+00 -1.000000e+00 0.000000e+00
    outer loop
      vertex 2.000000e+01 2.000000e+00 2.000000e+01
      vertex 4.000000e+01 2.000000e+00 2.500000e+01
      vertex 2.000000e+01 2.000000e+00 2.500000e+01
    endloop
  endfacet
  facet normal 0.000000e+00 0.000000e+00 1.000000e+00
    outer loop
      vertex 2.000000e+00 2.000000e+00 2.140000e+01
      vertex 4.000000e+00 2.000000e+00 2.140000e+01
      vertex 4.000000e+00 6.300000e+01 2.140000e+01
    endloop
  endfacet
  facet normal 0.000000e+00 0.000000e+00 1.000000e+00
    outer loop
      vertex 2.000000e+00 2.000000e+00 2.140000e+01
      vertex 4.000000e+00 6.300000e+01 2.140000e+01
      vertex 2.000000e+00 6.300000e+01 2.140000e+01
    endloop
  endfacet
  facet normal 0.000000e+00 0.000000e+00 -1.000000e+00
    outer loop
      vertex 2.000000e+00 2.000000e+00 2.380000e+01
      vertex 2.000000e+00 6.300000e+01 2.380000e+01
      vertex 4.000000e+00 6.300000e+01 2.380000e+01
    endloop
  endfacet
  facet normal 0.000000e+00 0.000000e+00 -1.000000e+00
    outer loop
      vertex 2.000000e+00 2.000000e+00 2.380000e+01
      vertex 4.000000e+00 6.300000e+01 2.380000e+01
      vertex 4.000000e+00 2.000000e+00 2.380000e+01
    endloop
  endfacet
  facet normal 1.000000e+00 0.000000e+00 0.000000e+00
    outer loop
      vertex 2.000000e+00 2.000000e+00 2.140000e+01
      vertex 2.000000e+00 6.300000e+01 2.140000e+01
      vertex 2.000000e+00 6.300000e+01 2.380000e+01
    endloop
  endfacet
  facet normal 1.000000e+00 0.000000e+00 0.000000e+00
    outer loop
      vertex 2.000000e+00 2.000000e+00 2.140000e+01
      vertex 2.000000e+00 6.300000e+01 2.380000e+01
      vertex 2.000000e+00 2.000000e+00 2.380000e+01
    endloop
  endfacet
  facet normal -1.000000e+00 0.000000e+00 0.000000e+00
    outer loop
      vertex 4.000000e+00 2.000000e+00 2.140000e+01
      vertex 4.000000e+00 2.000000e+00 2.380000e+01
      vertex 4.000000e+00 6.300000e+01 2.380000e+01
    endloop
  endfacet
  facet normal -1.000000e+00 0.000000e+00 0.000000e+00
    outer loop
      vertex 4.000000e+00 2.000000e+00 2.140000e+01
      vertex 4.000000e+00 6.300000e+01 2.380000e+01
      vertex 4.000000e+00 6.300000e+01 2.140000e+01
    endloop
  endfacet
  facet normal 0.000000e+00 1.000000e+00 0.000000e+00
    outer loop
      vertex 2.000000e+00 2.000000e+00 2.140000e+01
      vertex 2.000000e+00 2.000000e+00 2.380000e+01
      vertex 4.000000e+00 2.000000e+00 2.380000e+01
    endloop
  endfacet
  facet normal 0.000000e+00 1.000000e+00 0.000000e+00
    outer loop
      vertex 2.000000e+00 2.000000e+00 2.140000e+01
      vertex 4.000000e+00 2.000000e+00 2.380000e+01
      vertex 4.000000e+00 2.000000e+00 2.140000e+01
    endloop
  endfacet
  facet normal 0.000000e+00 -1.000000e+00 0.000000e+00
    outer loop
      vertex 2.000000e+00 6.300000e+01 2.140000e+01
      vertex 4.000000e+00 6.300000e+01 2.140000e+01
      vertex 4.000000e+00 6.300000e+01 2.380000e+01
    endloop
  endfacet
  facet normal 0.000000e+00 -1.000000e+00 0.000000e+00
    outer loop
      vertex 2.000000e+00 6.300000e+01 2.140000e+01
      vertex 4.000000e+00 6.300000e+01 2.380000e+01
      vertex 2.000000e+00 6.300000e+01 2.380000e+01
    endloop
  endfacet
  facet normal 0.000000e+00 0.000000e+00 1.000000e+00
    outer loop
      vertex 6.100000e+01 2.000000e+00 2.140000e+01
      vertex 6.300000e+01 2.000000e+00 2.140000e+01
      vertex 6.300000e+01 6.300000e+01 2.140000e+01
    endloop
  endfacet
  facet normal 0.000000e+00 0.000000e+00 1.000000e+00
    outer loop
      vertex 6.100000e+01 2.000000e+00 2.140000e+01
      vertex 6.300000e+01 6.300000e+01 2.140000e+01
      vertex 6.100000e+01 6.300000e+01 2.140000e+01
    endloop
  endfacet
  facet normal 0.000000e+00 0.000000e+00 -1.000000e+00
    outer loop
      vertex 6.100000e+01 2.000000e+00 2.380000e+01
      vertex 6.100000e+01 6.300000e+01 2.380000e+01
      vertex 6.300000e+01 6.300000e+01 2.380000e+01
    endloop
  endfacet
  facet normal 0.000000e+00 0.000000e+00 -1.000000e+00
    outer loop
      vertex 6.100000e+01 2.000000e+00 2.380000e+01
      vertex 6.300000e+01 6.300000e+01 2.380000e+01
      vertex 6.300000e+01 2.000000e+00 2.380000e+01
    endloop
  endfacet
  facet normal 1.000000e+00 0.000000e+00 0.000000e+00
    outer loop
      vertex 6.100000e+01 2.000000e+00 2.140000e+01
      vertex 6.100000e+01 6.300000e+01 2.140000e+01
      vertex 6.100000e+01 6.300000e+01 2.380000e+01
    endloop
  endfacet
  facet normal 1.000000e+00 0.000000e+00 0.000000e+00
    outer loop
      vertex 6.100000e+01 2.000000e+00 2.140000e+01
      vertex 6.100000e+01 6.300000e+01 2.380000e+01
      vertex 6.100000e+01 2.000000e+00 2.380000e+01
    endloop
  endfacet
  facet normal -1.000000e+00 0.000000e+00 0.000000e+00
    outer loop
      vertex 6.300000e+01 2.000000e+00 2.140000e+01
      vertex 6.300000e+01 2.000000e+00 2.380000e+01
      vertex 6.300000e+01 6.300000e+01 2.380000e+01
    endloop
  endfacet
  facet normal -1.000000e+00 0.000000e+00 0.000000e+00
    outer loop
      vertex 6.300000e+01 2.000000e+00 2.140000e+01
      vertex 6.300000e+01 6.300000e+01 2.380000e+01
      vertex 6.300000e+01 6.300000e+01 2.140000e+01
    endloop
  endfacet
  facet normal 0.000000e+00 1.000000e+00 0.000000e+00
    outer loop
      vertex 6.100000e+01 2.000000e+00 2.140000e+01
      vertex 6.100000e+01 2.000000e+00 2.380000e+01
      vertex 6.300000e+01 2.000000e+00 2.380000e+01
    endloop
  endfacet
  facet normal 0.000000e+00 1.000000e+00 0.000000e+00
    outer loop
      vertex 6.100000e+01 2.000000e+00 2.140000e+01
      vertex 6.300000e+01 2.000000e+00 2.380000e+01
      vertex 6.300000e+01 2.000000e+00 2.140000e+01
    endloop
  endfacet
  facet normal 0.000000e+00 -1.000000e+00 0.000000e+00
    outer loop
      vertex 6.100000e+01 6.300000e+01 2.140000e+01
      vertex 6.300000e+01 6.300000e+01 2.140000e+01
      vertex 6.300000e+01 6.300000e+01 2.380000e+01
    endloop
  endfacet
  facet normal 0.000000e+00 -1.000000e+00 0.000000e+00
    outer loop
      vertex 6.100000e+01 6.300000e+01 2.140000e+01
      vertex 6.300000e+01 6.300000e+01 2.380000e+01
      vertex 6.100000e+01 6.300000e+01 2.380000e+01
    endloop
  endfacet
endsolid sliding_box_body_corrected
